<?xml version="1.0" encoding="utf-8"?>
<!-- Generator: Adobe Illustrator 27.8.1, SVG Export Plug-In . SVG Version: 6.00 Build 0)  -->
<svg version="1.1" id="Layer_1" xmlns="http://www.w3.org/2000/svg" xmlns:xlink="http://www.w3.org/1999/xlink" x="0px" y="0px"
	 viewBox="0 0 326.53 326.53" style="enable-background:new 0 0 326.53 326.53;" xml:space="preserve">
<style type="text/css">
	.st0{fill-rule:evenodd;clip-rule:evenodd;fill:#73617C;}
	.st1{fill-rule:evenodd;clip-rule:evenodd;fill:#FFFFFF;}
</style>
<path class="st0" d="M0,163.27C0,73.34,73.34,0,163.26,0c89.92,0,163.26,73.34,163.26,163.27c0,89.92-73.34,163.27-163.26,163.27
	C73.34,326.53,0,253.19,0,163.27L0,163.27z"/>
<g>
	<g>
		<g>
			<path class="st1" d="M215.21,213.98v18h-94.84v-18H215.21L215.21,213.98z M108.26,123.87v30.04h106.96v18H108.26v30.04H90.14
				v-78.08H108.26L108.26,123.87z M215.21,93.83v18h-94.84v-18H215.21L215.21,93.83z M108.26,81.8v30.04H78.03v102.15h30.23v30.04
				h119.07v-42.07H120.37v-18h106.95v-42.07H120.37v-18h106.95V81.8H108.26L108.26,81.8z"/>
		</g>
	</g>
</g>
</svg>
