<?xml version="1.0" encoding="utf-8"?>
<!-- Generator: Adobe Illustrator 27.8.1, SVG Export Plug-In . SVG Version: 6.00 Build 0)  -->
<svg version="1.1" id="Layer_1" xmlns="http://www.w3.org/2000/svg" xmlns:xlink="http://www.w3.org/1999/xlink" x="0px" y="0px"
	 viewBox="0 0 1000 326.53" style="enable-background:new 0 0 1000 326.53;" xml:space="preserve">
<style type="text/css">
	.st0{fill-rule:evenodd;clip-rule:evenodd;fill:#73617C;}
	.st1{fill-rule:evenodd;clip-rule:evenodd;fill:#FFFFFF;}
</style>
<path class="st0" d="M0,163.27C0,73.34,73.34,0,163.26,0c89.92,0,163.26,73.34,163.26,163.27c0,89.92-73.34,163.27-163.26,163.27
	C73.34,326.53,0,253.19,0,163.27L0,163.27z M379.59,256.56h8.67l4.41-9.98h25.88l4.41,9.98h8.74l-21.54-48.18h-8.95L379.59,256.56z
	 M395.77,239.29l9.84-22.78l9.84,22.78H395.77z M465.62,256.56h8.05V237.5l-0.07-15.35l26.01,34.41h7.3v-48.18h-8.05v20.03
	l0.07,14.38l-26.01-34.41h-7.3V256.56z M540.84,256.56h8.67l4.41-9.98h25.88l4.41,9.98h8.74l-21.54-48.18h-8.95L540.84,256.56z
	 M557.02,239.29l9.84-22.78l9.84,22.78H557.02z M626.87,256.56h33.45v-7.5h-25.39v-40.67h-8.05V256.56z M701.34,256.56h7.98v-19.48
	l19.48-28.7h-9.7l-13.76,21.06l-13.36-21.06h-9.56l18.93,28.7V256.56z M758.05,215.82h15.62v40.74h8.05v-40.74h15.62v-7.43h-39.3
	V215.82z M831.96,256.56h8.05v-48.18h-8.05V256.56z M901.75,257.52c7.3,0,13.38-2.38,18.24-7.16l-5.16-5.37
	c-1.7,1.65-3.66,2.93-5.88,3.82c-2.23,0.89-4.56,1.34-6.99,1.34c-3.4,0-6.4-0.75-9.02-2.24c-2.62-1.49-4.66-3.58-6.13-6.26
	c-1.47-2.68-2.2-5.75-2.2-9.19c0-3.44,0.73-6.51,2.2-9.19c1.47-2.68,3.51-4.77,6.13-6.26c2.62-1.49,5.62-2.24,9.02-2.24
	c4.86,0,8.97,1.68,12.32,5.02l5.37-4.95c-4.86-4.95-10.85-7.43-17.96-7.43c-4.86,0-9.21,1.06-13.04,3.2
	c-3.83,2.13-6.81,5.1-8.95,8.88c-2.13,3.78-3.2,8.11-3.2,12.97c0,4.86,1.07,9.19,3.2,12.97c2.13,3.79,5.11,6.75,8.95,8.88
	C892.47,256.46,896.84,257.52,901.75,257.52z M972.15,257.52c3.9,0,7.34-0.61,10.32-1.82c2.98-1.22,5.29-2.94,6.92-5.16
	c1.63-2.22,2.44-4.8,2.44-7.74c0-4.08-1.51-7.24-4.54-9.46c-3.03-2.22-7.96-3.84-14.8-4.85c-4.04-0.6-6.97-1.47-8.81-2.62
	c-1.84-1.14-2.75-2.68-2.75-4.61c0-1.97,1.01-3.59,3.03-4.85c2.02-1.26,4.61-1.89,7.78-1.89c2.38,0,4.77,0.39,7.16,1.17
	c2.38,0.78,4.56,1.93,6.54,3.44l4.06-5.71c-2.43-1.88-5.21-3.35-8.33-4.4c-3.12-1.06-6.29-1.58-9.5-1.58
	c-3.63,0-6.85,0.58-9.67,1.75c-2.82,1.17-5.03,2.8-6.61,4.89s-2.37,4.46-2.37,7.12c0,4.22,1.47,7.48,4.4,9.77
	c2.94,2.3,7.69,3.9,14.25,4.82c4.17,0.55,7.23,1.4,9.15,2.55c1.92,1.15,2.89,2.71,2.89,4.68c0,2.16-1.06,3.89-3.17,5.19
	c-2.11,1.31-4.91,1.96-8.4,1.96c-2.98,0-5.91-0.48-8.77-1.45c-2.87-0.97-5.31-2.29-7.33-3.99l-4.2,6.06c2.8,2.16,5.96,3.82,9.5,4.99
	C964.88,256.94,968.48,257.52,972.15,257.52z M410.44,136.55h52.36v-25.47h-52.36V95.26h55.52V69.01h-86.37v110.73h88.58v-26.42
	h-57.74V136.55z M547.76,106.5l-29.11-37.49h-32.74v110.73h31v-65.8l27.68,33.38h5.53l28.32-33.53v65.96h31V69.01h-32.59
	L547.76,106.5z M831.74,140.51l28.79,37.33v1.9h-34.48l-25.79-35.91h-10.91v35.91h-31.32V69.01h54.1
	c28.31,0,43.02,18.19,43.02,38.12C855.15,120.73,850.4,132.28,831.74,140.51z M824.3,107.76c0-6.96-3.96-13.76-12.18-13.76h-22.78
	v26.57h23.09C820.66,120.58,824.3,114.41,824.3,107.76z M668,69.01l-49.67,110.73h33.22l32.11-79.72l14.08,35.27h-21.06l-10.6,26.26
	h42.25l7.28,18.19h33.53L699.63,69.01H668z M942.32,69.01h-31.63l-49.67,110.73h33.22l32.11-79.72l14.08,35.27h-21.06l-10.6,26.26
	h42.26l7.28,18.19h33.53L942.32,69.01z"/>
<g>
	<g>
		<g>
			<path class="st1" d="M215.21,213.98v18h-94.84v-18H215.21L215.21,213.98z M108.26,123.87v30.04h106.96v18H108.26v30.04H90.14
				v-78.08H108.26L108.26,123.87z M215.21,93.83v18h-94.84v-18H215.21L215.21,93.83z M108.26,81.8v30.04H78.03v102.15h30.23v30.04
				h119.07v-42.07H120.37v-18h106.95v-42.07H120.37v-18h106.95V81.8H108.26L108.26,81.8z"/>
		</g>
	</g>
</g>
</svg>
